<?xml version="1.0" encoding="UTF-8"?>
<svg xmlns="http://www.w3.org/2000/svg" xmlns:xlink="http://www.w3.org/1999/xlink" width="27px" height="27px" viewBox="0 0 27 27" version="1.1">
<g id="surface1">
<path style=" stroke:none;fill-rule:nonzero;fill:rgb(0%,0%,0%);fill-opacity:1;" d="M 1.960938 13.480469 C 1.960938 7.101562 7.144531 1.917969 13.519531 1.917969 C 15.570312 1.917969 17.5 2.457031 19.171875 3.398438 L 20.089844 1.726562 C 18.199219 0.660156 16.027344 0.0390625 13.714844 0.00390625 L 13.496094 0.00390625 C 6.085938 0.015625 0.0820312 5.972656 0 13.371094 L 0 13.5 C 0.0078125 17.371094 1.640625 20.851562 4.246094 23.3125 L 5.582031 21.871094 C 3.351562 19.761719 1.960938 16.777344 1.960938 13.480469 Z M 22.90625 3.832031 L 21.609375 5.226562 C 23.75 7.328125 25.082031 10.25 25.082031 13.480469 C 25.082031 19.855469 19.898438 25.039062 13.523438 25.039062 C 11.515625 25.039062 9.628906 24.527344 7.984375 23.625 L 7.023438 25.335938 C 8.945312 26.394531 11.152344 26.996094 13.5 26.996094 C 20.953125 26.996094 27 20.953125 27 13.5 C 26.996094 9.707031 25.425781 6.28125 22.90625 3.832031 Z M 2.207031 13.480469 C 2.207031 16.707031 3.570312 19.625 5.746094 21.6875 L 7.074219 20.25 C 5.285156 18.542969 4.164062 16.140625 4.164062 13.480469 C 4.164062 8.320312 8.359375 4.125 13.519531 4.125 C 15.1875 4.125 16.753906 4.566406 18.113281 5.335938 L 19.050781 3.617188 C 17.417969 2.695312 15.527344 2.167969 13.519531 2.167969 C 7.285156 2.164062 2.207031 7.242188 2.207031 13.480469 Z M 22.875 13.480469 C 22.875 18.640625 18.679688 22.835938 13.519531 22.835938 C 11.910156 22.835938 10.386719 22.425781 9.0625 21.703125 L 8.105469 23.410156 C 9.714844 24.289062 11.558594 24.792969 13.519531 24.792969 C 19.757812 24.792969 24.832031 19.714844 24.832031 13.480469 C 24.832031 10.320312 23.53125 7.464844 21.4375 5.410156 L 20.109375 6.84375 C 21.816406 8.539062 22.875 10.886719 22.875 13.480469 Z M 20.683594 13.480469 C 20.683594 17.429688 17.46875 20.640625 13.523438 20.640625 C 12.34375 20.640625 11.179688 20.347656 10.140625 19.789062 L 9.1875 21.484375 C 10.476562 22.1875 11.953125 22.582031 13.523438 22.582031 C 18.542969 22.582031 22.628906 18.5 22.628906 13.476562 C 22.628906 10.957031 21.601562 8.675781 19.941406 7.023438 L 18.613281 8.449219 C 19.890625 9.742188 20.683594 11.519531 20.683594 13.480469 Z M 4.417969 13.480469 C 4.417969 16.070312 5.503906 18.410156 7.246094 20.070312 L 8.566406 18.640625 C 7.207031 17.335938 6.359375 15.507812 6.359375 13.480469 C 6.359375 9.53125 9.574219 6.320312 13.519531 6.320312 C 14.804688 6.320312 16.011719 6.664062 17.058594 7.257812 L 17.992188 5.554688 C 16.667969 4.804688 15.144531 4.375 13.519531 4.375 C 8.5 4.375 4.417969 8.457031 4.417969 13.480469 Z M 18.511719 13.480469 C 18.511719 16.234375 16.277344 18.472656 13.519531 18.472656 C 12.710938 18.472656 11.917969 18.277344 11.203125 17.898438 L 10.261719 19.574219 C 11.261719 20.109375 12.382812 20.390625 13.519531 20.390625 C 17.332031 20.390625 20.429688 17.292969 20.429688 13.480469 C 20.429688 11.59375 19.671875 9.882812 18.441406 8.632812 L 17.136719 10.039062 C 17.984375 10.9375 18.511719 12.144531 18.511719 13.480469 Z M 6.609375 13.480469 C 6.609375 15.433594 7.425781 17.199219 8.734375 18.457031 L 10.035156 17.050781 L 10.050781 17.066406 C 9.113281 16.160156 8.527344 14.890625 8.527344 13.484375 C 8.527344 10.726562 10.757812 8.492188 13.519531 8.492188 C 14.425781 8.492188 15.277344 8.734375 16.011719 9.164062 L 16.933594 7.476562 C 15.894531 6.882812 14.714844 6.570312 13.519531 6.570312 C 9.710938 6.566406 6.609375 9.667969 6.609375 13.480469 Z M 14.125 13.480469 C 14.125 13.8125 13.851562 14.082031 13.519531 14.082031 C 13.1875 14.082031 12.914062 13.8125 12.914062 13.480469 C 12.914062 13.144531 13.1875 12.875 13.519531 12.875 C 13.851562 12.875 14.125 13.144531 14.125 13.480469 Z M 9.691406 13.480469 C 9.691406 11.367188 11.40625 9.652344 13.515625 9.652344 C 15.632812 9.652344 17.34375 11.363281 17.34375 13.480469 C 17.34375 15.59375 15.628906 17.304688 13.515625 17.304688 C 11.40625 17.304688 9.691406 15.59375 9.691406 13.480469 Z M 9.859375 13.480469 C 9.863281 15.5 11.5 17.136719 13.515625 17.136719 C 15.535156 17.136719 17.179688 15.5 17.179688 13.480469 C 17.175781 11.457031 15.539062 9.820312 13.515625 9.820312 C 11.5 9.820312 9.859375 11.457031 9.859375 13.480469 Z M 9.859375 13.480469 "/>
</g>
</svg>
